<?xml version="1.0" standalone="no"?>
<!DOCTYPE svg PUBLIC "-//W3C//DTD SVG 20010904//EN"
 "http://www.w3.org/TR/2001/REC-SVG-20010904/DTD/svg10.dtd">
<svg version="1.0" xmlns="http://www.w3.org/2000/svg"
 width="512.000000pt" height="512.000000pt" viewBox="0 0 512.000000 512.000000"
 preserveAspectRatio="xMidYMid meet">

<g transform="translate(0.000000,512.000000) scale(0.100000,-0.100000)"
fill="#fff" stroke="none">
<path d="M1611 4739 c-91 -17 -123 -43 -332 -265 l-201 -214 -112 0 -113 0 -6
45 c-4 25 -14 57 -23 71 -35 52 -46 54 -401 54 -308 0 -330 -1 -360 -20 -64
-39 -63 -25 -63 -602 0 -501 1 -524 20 -555 37 -62 45 -63 405 -63 352 0 364
2 399 54 9 14 19 46 23 71 4 32 10 45 22 45 9 0 124 -14 256 -32 268 -35 311
-33 389 19 59 38 738 572 758 595 10 11 20 42 24 69 l7 49 71 -6 c39 -3 233
-14 430 -24 347 -19 361 -19 400 -1 44 19 101 77 117 119 14 35 13 121 -1 157
-13 35 -64 91 -100 110 -14 7 -59 20 -100 28 -41 9 -214 46 -385 82 -596 127
-1010 213 -1045 217 -19 3 -55 1 -79 -3z m823 -314 c395 -84 723 -158 728
-163 17 -17 12 -64 -7 -79 -12 -8 -36 -11 -69 -8 -28 3 -228 14 -445 26 l-395
20 -35 28 c-75 59 -146 78 -227 61 -45 -10 -77 -31 -245 -163 -203 -160 -222
-182 -203 -234 11 -32 56 -57 87 -49 12 3 105 71 207 151 166 131 188 145 215
140 45 -8 79 -38 89 -78 5 -20 8 -38 5 -40 -2 -2 -165 -131 -362 -285 -244
-192 -368 -283 -390 -287 -17 -3 -144 9 -282 27 l-250 34 -3 287 -2 287 132 0
c81 1 144 6 161 13 15 7 121 111 235 232 217 229 242 249 307 238 17 -3 353
-74 749 -158z m-1744 -615 l0 -460 -265 0 -265 0 0 460 0 460 265 0 265 0 0
-460z"/>
<path d="M467 3538 c-43 -33 -40 -100 5 -132 30 -22 60 -20 92 5 33 26 37 88
6 119 -23 23 -77 27 -103 8z"/>
<path d="M2460 3550 c-356 -36 -674 -269 -814 -597 -128 -301 -103 -642 70
-920 63 -102 215 -254 317 -317 319 -198 707 -201 1042 -7 110 63 272 226 338
337 96 165 139 325 139 514 0 194 -47 362 -144 521 -69 111 -216 258 -327 327
-182 111 -411 164 -621 142z m303 -181 c562 -141 813 -799 487 -1279 -258
-380 -778 -478 -1161 -219 -321 216 -449 640 -303 1004 60 150 178 292 318
384 117 76 219 111 391 135 55 7 189 -5 268 -25z"/>
<path d="M2524 3298 c-26 -12 -44 -48 -44 -87 0 -23 -5 -30 -27 -34 -50 -10
-136 -71 -175 -122 -53 -69 -73 -134 -72 -227 1 -65 6 -87 33 -142 38 -78 108
-145 186 -177 l55 -23 0 -194 0 -193 -27 19 c-59 42 -92 101 -93 168 0 63 -80
97 -131 55 -48 -39 -23 -181 49 -276 39 -51 125 -112 175 -122 22 -4 27 -11
27 -34 0 -56 37 -99 86 -99 30 0 74 56 74 93 0 30 4 35 28 40 49 10 135 71
174 122 78 103 96 247 45 358 -37 81 -105 150 -183 183 l-64 28 0 194 0 193
28 -19 c58 -42 91 -101 92 -168 1 -92 133 -99 156 -9 17 66 -50 223 -118 281
-36 30 -121 74 -143 74 -10 0 -15 10 -15 30 0 41 -18 76 -47 89 -29 13 -41 13
-69 -1z m-44 -459 l0 -180 -31 18 c-17 10 -41 36 -54 58 -52 88 -41 173 31
243 24 23 47 42 49 42 3 0 5 -81 5 -181z m245 -454 c57 -98 36 -200 -55 -265
l-30 -21 0 181 0 181 31 -18 c17 -10 41 -36 54 -58z"/>
<path d="M4339 1915 c-36 -20 -58 -57 -66 -110 -4 -34 -10 -45 -23 -45 -10 0
-121 14 -247 31 -243 33 -295 33 -364 0 -24 -12 -213 -154 -419 -316 -390
-306 -398 -314 -399 -388 l-1 -27 -67 5 c-38 3 -232 14 -432 25 -326 17 -367
18 -400 4 -139 -58 -179 -238 -76 -344 21 -21 50 -43 64 -49 49 -20 1496 -322
1543 -323 64 0 106 10 154 38 23 13 130 118 238 234 l198 210 112 0 113 0 6
-45 c4 -25 14 -57 23 -71 35 -52 47 -54 399 -54 360 0 368 1 405 63 19 31 20
54 20 550 0 571 0 569 -62 607 -31 19 -49 20 -363 20 -265 -1 -335 -4 -356
-15z m621 -605 l0 -460 -265 0 -265 0 0 460 0 460 265 0 265 0 0 -460z m-935
317 l240 -33 3 -287 2 -287 -134 0 c-81 0 -145 -5 -160 -11 -14 -7 -116 -108
-226 -226 -111 -117 -212 -220 -225 -229 -13 -8 -41 -15 -62 -16 -22 0 -178
30 -349 66 -170 36 -497 106 -728 155 -230 49 -423 94 -429 100 -16 16 -11 63
8 77 12 9 37 12 74 9 31 -3 231 -15 446 -26 l389 -21 36 -27 c74 -59 145 -78
226 -61 45 10 77 31 245 163 203 160 222 182 203 234 -11 32 -56 57 -87 49
-12 -3 -105 -71 -207 -151 -166 -131 -188 -145 -215 -140 -45 8 -79 38 -89 78
-5 20 -8 38 -5 40 113 94 716 560 731 567 34 13 52 12 313 -23z"/>
<path d="M4556 1709 c-55 -43 -24 -139 45 -139 42 0 65 15 78 50 12 35 7 56
-22 88 -26 28 -66 28 -101 1z"/>
</g>
</svg>
