<?xml version="1.0" standalone="no"?>
<!DOCTYPE svg PUBLIC "-//W3C//DTD SVG 20010904//EN"
 "http://www.w3.org/TR/2001/REC-SVG-20010904/DTD/svg10.dtd">
<svg version="1.0" xmlns="http://www.w3.org/2000/svg"
 width="512.000000pt" height="512.000000pt" viewBox="0 0 512.000000 512.000000"
 preserveAspectRatio="xMidYMid meet">

<g transform="translate(0.000000,512.000000) scale(0.100000,-0.100000)"
fill="#000000" stroke="none">
<path d="M2382 4949 c-698 -94 -1221 -658 -1259 -1356 -6 -118 -7 -123 -28
-123 -12 0 -93 5 -180 11 l-158 11 -26 -26 c-25 -26 -26 -28 -37 -263 -28
-561 -28 -565 -7 -592 14 -17 35 -26 74 -32 93 -14 479 -21 594 -12 l110 10
80 -77 c201 -191 413 -311 662 -373 499 -126 1005 14 1369 377 209 210 343
460 401 753 25 126 24 384 -1 520 l-19 103 49 57 c28 32 85 99 129 150 l78 92
89 -81 c49 -44 91 -84 94 -89 11 -19 80 -9 102 14 20 22 23 46 47 407 31 456
30 485 -6 513 l-27 19 -413 -47 c-228 -26 -425 -53 -439 -59 -31 -14 -53 -59
-44 -89 3 -12 50 -63 103 -114 l96 -92 -66 -66 -65 -66 -110 108 c-208 207
-442 332 -729 393 -117 24 -352 34 -463 19z m423 -174 c44 -9 116 -28 160 -42
73 -24 78 -27 52 -34 -114 -31 -592 -40 -806 -15 -68 8 -125 17 -128 20 -9 9
190 66 282 81 113 18 330 13 440 -10z m1602 -27 c-3 -24 -11 -133 -17 -243
-15 -275 -8 -257 -82 -190 -70 62 -95 73 -131 53 -13 -7 -119 -124 -236 -260
-116 -136 -255 -292 -309 -346 -489 -494 -1122 -834 -1807 -971 -267 -54 -383
-65 -697 -65 -157 -1 -289 1 -292 4 -3 3 1 134 9 290 8 157 15 287 15 290 0 3
134 5 297 5 386 1 631 29 957 110 647 163 1217 470 1716 926 214 196 217 205
115 307 -36 36 -64 66 -62 68 2 2 476 61 511 63 16 1 18 -4 13 -41z m-2475
-180 c29 -6 56 -14 61 -18 4 -3 -10 -44 -32 -91 -21 -46 -51 -120 -67 -164
-15 -44 -31 -84 -35 -89 -13 -15 -319 64 -319 83 0 16 175 194 239 242 70 53
74 54 153 37z m1395 -24 c60 -45 223 -205 223 -219 0 -8 -215 -174 -256 -198
-7 -4 -24 35 -49 111 -20 64 -57 159 -81 211 -24 52 -42 97 -38 100 8 8 93 28
126 30 16 1 45 -13 75 -35z m-919 -33 l72 -1 0 -189 0 -189 -82 4 c-141 8
-341 26 -359 32 -17 7 -16 10 3 67 23 69 78 191 113 250 l23 41 79 -7 c43 -4
111 -8 151 -8z m602 -116 c27 -55 58 -127 69 -160 18 -57 19 -60 2 -67 -18 -6
-218 -24 -358 -32 l-83 -4 0 189 0 189 78 1 c42 1 109 4 147 8 84 8 80 11 145
-124z m-1469 -281 c41 -14 118 -36 173 -49 54 -14 101 -26 103 -29 2 -2 -3
-44 -11 -92 -18 -106 -36 -286 -36 -366 0 -45 -4 -58 -17 -62 -23 -7 -274 -33
-385 -40 l-88 -6 0 67 c0 91 23 239 54 345 32 109 100 258 119 258 7 0 47 -11
88 -26z m649 -125 c47 -5 117 -9 156 -9 39 0 86 -3 103 -6 l31 -6 0 -132 0
-132 -162 -52 c-141 -45 -355 -102 -382 -102 -16 0 15 336 41 438 6 23 8 24
67 17 33 -4 99 -11 146 -16z m910 17 c0 -9 -244 -140 -348 -187 l-107 -49 -3
96 c-1 53 -1 99 2 101 3 3 74 9 158 14 124 8 232 18 291 28 4 0 7 -1 7 -3z
m732 -353 l5 -53 -71 0 -70 0 59 60 c33 33 62 56 66 52 4 -4 9 -31 11 -59z
m-5 -290 c-5 -42 -19 -118 -32 -168 -22 -87 -94 -268 -114 -288 -7 -7 -41 -1
-108 21 -54 17 -136 40 -182 51 -46 11 -86 22 -88 25 -4 4 18 171 35 257 6 30
22 49 92 107 l85 70 161 1 160 1 -9 -77z m-672 -240 c-14 -100 -11 -96 -74
-89 -124 15 -123 11 -19 76 51 32 95 58 97 59 2 1 0 -20 -4 -46z m-235 -234
c63 -5 129 -12 147 -16 l32 -5 -33 -92 c-41 -116 -117 -262 -134 -258 -7 1
-76 5 -153 9 l-139 6 0 177 0 176 27 10 c29 10 83 9 253 -7z m525 -90 c61 -16
117 -34 124 -39 11 -6 6 -19 -27 -57 -53 -65 -177 -181 -229 -217 -42 -28 -42
-28 -113 -15 -39 7 -73 16 -75 20 -3 4 13 44 35 90 21 46 52 124 67 172 l28
88 40 -6 c22 -3 90 -19 150 -36z m-965 -127 l0 -139 -139 -6 c-77 -4 -145 -8
-152 -9 -7 -2 -29 26 -50 62 -63 110 -74 97 134 166 100 33 188 61 195 62 9 2
12 -31 12 -136z m-484 -181 c-3 -4 -37 -13 -76 -20 -71 -13 -71 -13 -111 15
-56 38 -131 105 -125 111 3 3 58 15 123 27 l118 22 38 -74 c21 -40 35 -76 33
-81z m878 -133 c180 -16 187 -20 90 -51 -153 -49 -238 -62 -404 -62 -112 0
-179 5 -240 18 -87 19 -243 67 -237 73 8 9 174 27 302 33 158 9 314 5 489 -11z"/>
<path d="M325 2541 c-79 -35 -135 -131 -121 -205 3 -17 68 -234 145 -481 l138
-451 168 -251 167 -251 215 -143 c118 -79 221 -152 229 -163 11 -16 14 -62 14
-204 0 -181 0 -183 25 -207 l24 -25 391 0 391 0 24 25 c14 13 25 31 25 40 0 9
-18 164 -41 343 l-40 327 -83 251 -83 251 -210 279 c-116 153 -219 287 -229
296 -59 52 -179 66 -251 29 -54 -27 -108 -91 -123 -147 -20 -72 -7 -124 64
-253 36 -63 63 -117 61 -119 -11 -11 -73 40 -172 140 l-111 113 -185 370
c-111 223 -196 381 -213 397 -61 57 -146 73 -219 39z m101 -149 c7 -4 96 -176
199 -382 l187 -375 126 -128 127 -129 177 -89 c98 -49 189 -89 203 -89 34 0
75 42 75 76 0 15 -55 122 -135 263 -74 130 -135 245 -135 254 0 50 57 85 101
63 13 -6 112 -128 220 -271 l196 -260 77 -231 76 -230 30 -240 c16 -131 32
-254 35 -271 l6 -33 -275 0 -274 0 -4 153 c-4 217 1 209 -282 399 l-218 146
-153 229 -152 228 -132 430 c-73 237 -134 437 -137 446 -9 31 35 59 62 41z"/>
<path d="M4640 2544 c-19 -8 -48 -27 -64 -42 -17 -16 -101 -174 -213 -397
l-185 -370 -111 -113 c-101 -102 -161 -151 -173 -139 -2 2 25 55 61 118 72
127 86 180 65 253 -15 56 -69 120 -123 147 -72 37 -192 23 -251 -29 -10 -9
-113 -143 -229 -296 l-210 -279 -82 -248 -83 -248 -41 -325 c-23 -179 -41
-335 -41 -346 0 -12 11 -32 25 -45 l24 -25 391 0 391 0 24 25 c25 24 25 26 25
207 0 142 3 188 14 204 8 11 111 84 229 163 l215 143 167 251 168 251 138 451
c77 247 142 464 145 481 8 45 -12 109 -49 151 -59 67 -151 90 -227 57z m105
-160 c8 -9 13 -24 11 -33 -3 -9 -64 -209 -137 -446 l-132 -430 -152 -228 -152
-228 -219 -147 c-283 -191 -278 -183 -282 -399 l-4 -153 -274 0 -275 0 6 33
c3 17 19 140 35 271 l30 240 76 230 77 231 196 260 c108 143 207 265 220 271
45 23 101 -13 101 -64 0 -10 -61 -125 -135 -254 -81 -141 -135 -246 -135 -262
0 -34 41 -76 75 -76 14 0 105 40 203 89 l177 89 127 129 126 128 187 375 c103
206 192 378 199 382 17 12 33 9 51 -8z"/>
</g>
</svg>
