<?xml version="1.0" standalone="no"?>
<!DOCTYPE svg PUBLIC "-//W3C//DTD SVG 20010904//EN"
 "http://www.w3.org/TR/2001/REC-SVG-20010904/DTD/svg10.dtd">
<svg version="1.0" xmlns="http://www.w3.org/2000/svg"
 width="512.000000pt" height="512.000000pt" viewBox="0 0 512.000000 512.000000"
 preserveAspectRatio="xMidYMid meet">

<g transform="translate(0.000000,512.000000) scale(0.100000,-0.100000)"
fill="#fff" stroke="none">
<path d="M2514 5097 c-24 -21 -27 -32 -31 -98 -8 -129 30 -189 105 -163 38 13
55 69 49 163 -4 66 -7 77 -31 98 -15 13 -36 23 -46 23 -10 0 -31 -10 -46 -23z"/>
<path d="M1766 4789 c-19 -15 -26 -29 -26 -56 0 -32 9 -46 68 -105 77 -77 111
-87 150 -45 41 44 30 76 -52 155 -41 40 -83 72 -94 72 -10 0 -31 -9 -46 -21z"/>
<path d="M3214 4738 c-83 -80 -95 -115 -51 -156 42 -39 73 -29 149 46 59 59
68 73 68 105 0 39 -36 77 -72 77 -11 0 -53 -32 -94 -72z"/>
<path d="M2430 4656 c-154 -34 -249 -85 -361 -196 -72 -71 -93 -101 -132 -180
-136 -277 -91 -559 127 -810 36 -41 80 -103 97 -138 l32 -63 -24 -42 c-19 -35
-24 -59 -27 -146 -9 -214 47 -281 241 -289 l97 -4 0 -159 0 -159 -740 0 c-809
0 -780 2 -843 -58 -55 -52 -62 -76 -67 -231 l-5 -145 -55 -16 c-125 -38 -242
-125 -310 -230 -117 -182 -101 -432 38 -607 l41 -51 -51 -17 c-67 -22 -161
-69 -178 -90 -19 -23 -17 -71 5 -95 25 -28 67 -25 139 10 102 50 172 60 451
60 284 0 343 -9 452 -64 131 -66 227 -180 275 -326 16 -52 22 -99 25 -237 l5
-171 -25 -26 c-24 -24 -33 -26 -117 -26 l-90 0 0 134 c0 133 0 135 -26 155
-43 34 -86 26 -109 -20 -11 -20 -15 -62 -15 -149 l0 -120 -380 0 -380 0 0 134
c0 133 0 135 -26 155 -43 34 -86 24 -112 -26 -7 -13 -12 -70 -12 -142 l0 -121
-84 0 c-70 0 -88 3 -111 21 l-27 22 4 186 c4 163 7 193 27 246 34 91 35 107
11 138 -28 35 -77 37 -108 5 -11 -13 -33 -59 -48 -103 -26 -75 -28 -92 -32
-285 l-4 -205 29 -55 c21 -40 42 -63 78 -85 l48 -30 751 0 751 0 38 22 38 23
42 -23 42 -22 730 0 c776 0 737 -2 810 44 18 11 26 10 59 -12 20 -14 56 -29
79 -32 23 -3 364 -5 758 -3 l716 3 48 30 c36 22 57 45 77 84 27 52 28 57 28
221 0 179 -13 277 -49 368 -72 182 -247 345 -438 407 l-52 17 41 51 c236 297
97 726 -272 837 l-55 16 -5 145 c-5 155 -12 179 -67 231 -63 60 -34 58 -843
58 l-740 0 0 159 0 159 98 4 c193 8 248 75 241 289 -4 86 -8 111 -27 143 -20
35 -22 43 -11 70 20 50 78 137 131 196 66 74 121 168 154 265 23 68 28 97 28
193 1 108 0 115 -23 133 -30 25 -62 24 -95 -2 -24 -19 -26 -27 -26 -92 -1
-155 -44 -270 -150 -395 -69 -83 -126 -167 -154 -230 l-19 -42 -226 0 -226 0
-43 83 c-23 45 -76 123 -118 172 -117 139 -163 251 -164 396 0 76 33 199 72
268 46 82 149 179 232 219 222 108 450 70 636 -105 48 -45 86 -73 100 -73 33
0 56 16 69 49 17 41 -1 73 -90 155 -79 73 -192 135 -294 161 -87 22 -227 27
-305 11z m384 -1502 c12 -11 16 -36 16 -96 0 -124 14 -118 -268 -118 -285 0
-272 -6 -272 116 0 62 4 87 16 98 13 14 50 16 254 16 204 0 241 -2 254 -16z
m-334 -978 l0 -144 -47 -12 c-176 -43 -324 -189 -377 -369 -9 -31 -16 -90 -16
-135 0 -131 36 -234 116 -332 l42 -52 -66 -21 c-140 -46 -269 -144 -351 -266
l-49 -74 -42 64 c-80 123 -217 228 -359 276 -34 12 -61 23 -61 26 0 3 16 23
35 44 107 119 148 327 96 490 -53 165 -192 300 -356 344 l-65 18 0 128 c0 121
1 129 22 143 20 14 108 16 750 16 l728 0 0 -144z m1638 128 c21 -14 22 -22 22
-143 l0 -128 -65 -18 c-164 -44 -303 -179 -356 -344 -52 -163 -11 -371 96
-490 19 -21 35 -41 35 -44 0 -3 -27 -14 -61 -26 -142 -48 -279 -153 -359 -276
l-42 -64 -50 75 c-81 121 -211 220 -347 264 l-70 22 46 56 c78 96 113 197 113
328 0 236 -164 447 -392 504 l-48 12 0 144 0 144 728 0 c642 0 730 -2 750 -16z
m-3062 -453 c34 -16 79 -45 101 -65 50 -44 97 -133 113 -208 31 -155 -55 -324
-202 -397 -56 -28 -70 -31 -162 -31 -91 0 -107 3 -163 29 -78 37 -137 98 -177
181 -28 58 -31 75 -31 155 0 76 5 99 27 147 90 194 306 276 494 189z m1576 28
c115 -25 213 -101 265 -207 25 -51 28 -68 28 -157 0 -93 -2 -105 -33 -167 -36
-74 -96 -133 -170 -170 -41 -20 -62 -23 -162 -23 -102 0 -121 3 -165 25 -67
33 -140 108 -173 178 -24 50 -27 69 -27 157 0 89 3 106 28 157 50 103 142 177
252 204 65 16 92 16 157 3z m1724 -20 c76 -29 156 -105 196 -187 30 -60 33
-75 33 -157 0 -80 -3 -97 -31 -155 -40 -83 -99 -144 -177 -181 -56 -26 -72
-29 -163 -29 -92 0 -106 3 -162 31 -130 64 -204 186 -205 334 -1 70 3 89 30
146 17 37 47 84 67 106 41 46 136 100 198 113 58 12 149 3 214 -21z m-1481
-874 c187 -39 342 -173 407 -350 18 -50 22 -87 26 -228 3 -116 0 -177 -8 -197
-16 -40 -65 -60 -144 -60 l-66 0 0 130 c0 126 -1 132 -25 155 -13 14 -36 25
-50 25 -14 0 -37 -11 -50 -25 -24 -23 -25 -29 -25 -155 l0 -130 -380 0 -380 0
0 130 c0 126 -1 132 -25 155 -31 32 -69 32 -100 0 -24 -23 -25 -29 -25 -155
l0 -130 -90 0 c-136 0 -133 -6 -128 233 3 167 7 200 26 252 65 175 220 310
402 349 94 21 540 21 635 1z m1660 0 c210 -44 387 -223 424 -429 6 -33 11
-128 11 -212 l0 -153 -26 -20 c-22 -17 -41 -21 -110 -21 l-84 0 0 121 c0 72
-5 129 -12 142 -26 50 -69 60 -112 26 -26 -20 -26 -22 -26 -155 l0 -134 -380
0 -380 0 0 120 c0 87 -4 129 -15 149 -23 46 -66 54 -109 20 -26 -20 -26 -22
-26 -155 l0 -134 -90 0 c-84 0 -93 2 -117 26 l-25 26 5 171 c3 138 9 185 25
237 30 92 88 184 152 243 65 59 192 123 270 136 96 15 545 13 625 -4z"/>
<path d="M1456 4039 c-33 -26 -36 -79 -6 -109 17 -17 33 -20 120 -20 115 0
140 13 140 74 0 57 -34 76 -140 76 -73 0 -92 -3 -114 -21z"/>
<path d="M3436 4039 c-33 -26 -36 -79 -6 -109 17 -17 33 -20 120 -20 115 0
140 13 140 74 0 57 -34 76 -140 76 -73 0 -92 -3 -114 -21z"/>
<path d="M1815 3339 c-64 -61 -75 -77 -75 -106 0 -42 30 -73 72 -73 26 0 44
13 100 68 58 59 68 74 68 104 0 39 -20 63 -62 73 -25 6 -36 -1 -103 -66z"/>
<path d="M3190 3403 c-33 -12 -50 -37 -50 -71 0 -30 10 -45 68 -104 56 -55 74
-68 100 -68 42 0 72 31 72 73 0 29 -11 44 -74 105 -72 70 -84 77 -116 65z"/>
</g>
</svg>
