<?xml version="1.0" standalone="no"?>
<!DOCTYPE svg PUBLIC "-//W3C//DTD SVG 20010904//EN"
 "http://www.w3.org/TR/2001/REC-SVG-20010904/DTD/svg10.dtd">
<svg version="1.0" xmlns="http://www.w3.org/2000/svg"
 width="512.000000pt" height="512.000000pt" viewBox="0 0 512.000000 512.000000"
 preserveAspectRatio="xMidYMid meet">

<g transform="translate(0.000000,512.000000) scale(0.100000,-0.100000)"
fill="#000000" stroke="none">
<path d="M95 4851 c-40 -24 -71 -60 -84 -94 -8 -20 -11 -535 -11 -1681 l0
-1653 23 -44 c15 -27 38 -52 63 -66 39 -23 39 -23 556 -23 l518 0 6 -27 c31
-143 64 -196 150 -239 33 -16 60 -29 61 -29 1 -1 -9 -29 -23 -64 -72 -179 -26
-391 115 -531 105 -104 215 -150 356 -150 140 1 255 48 352 146 144 143 191
368 114 547 l-20 47 205 0 c161 0 205 -3 200 -12 -2 -7 -15 -44 -27 -81 -29
-93 -24 -244 11 -327 85 -199 264 -320 475 -320 342 1 580 337 471 664 -15 43
-25 79 -24 80 2 2 21 8 44 14 52 15 125 79 147 129 9 21 140 612 290 1313
l274 1275 316 3 317 2 -2 -1142 -3 -1143 -430 -5 c-236 -3 -437 -9 -446 -13
-17 -8 -39 -49 -39 -71 0 -7 9 -25 21 -40 l20 -26 452 0 c449 0 452 0 491 23
25 14 48 39 63 66 l23 44 0 1653 c0 1143 -3 1661 -11 1681 -13 34 -55 80 -91
99 -23 12 -385 14 -2460 14 -2356 0 -2434 -1 -2463 -19z m4873 -553 l2 -418
-105 0 -105 0 29 40 c76 105 60 244 -38 333 -59 53 -118 67 -285 67 -231 0
-335 -33 -450 -141 -70 -65 -115 -141 -142 -237 l-17 -62 -363 0 c-199 0 -370
-3 -379 -6 -8 -4 -23 -20 -31 -36 -19 -37 -5 -80 32 -97 17 -7 133 -11 364
-11 291 0 340 -2 340 -15 0 -13 -56 -281 -66 -317 -5 -17 -88 -18 -1397 -20
-1316 -3 -1394 -4 -1432 -21 -50 -23 -101 -71 -126 -120 -39 -76 -36 -101 69
-591 106 -494 107 -496 169 -496 28 0 73 41 73 67 0 10 -43 220 -96 468 l-97
450 19 35 c13 23 31 39 54 47 26 9 380 12 1446 12 1343 1 1412 2 1427 19 10
11 43 142 87 347 44 206 80 349 96 381 30 64 98 128 172 162 52 24 71 26 212
30 182 5 219 -4 246 -61 19 -39 14 -72 -15 -108 -18 -23 -26 -24 -183 -29
-184 -6 -218 -17 -251 -80 -9 -19 -143 -624 -297 -1345 -154 -720 -287 -1325
-295 -1343 -18 -40 -65 -62 -133 -62 -33 0 -57 6 -73 19 -46 35 -132 73 -203
88 -123 26 -241 4 -358 -67 l-67 -40 -325 0 -325 0 -60 38 c-158 103 -382 101
-539 -3 -39 -25 -65 -35 -94 -35 -49 0 -101 24 -117 53 -6 12 -45 180 -86 372
-41 193 -77 360 -80 372 -7 30 -44 63 -71 63 -12 0 -33 -9 -48 -21 -36 -28
-34 -51 23 -314 l48 -220 -476 -3 c-262 -1 -482 0 -488 3 -10 3 -13 242 -13
1145 l0 1140 1338 0 c1035 1 1341 3 1353 13 26 20 40 55 33 82 -15 58 71 55
-1386 55 l-1338 0 0 413 c0 228 3 417 7 420 3 4 1087 6 2407 5 l2401 -3 3
-417z m-3067 -3202 c195 -45 318 -246 264 -432 -34 -118 -110 -202 -223 -245
-87 -32 -196 -24 -280 21 -74 39 -125 92 -161 169 -22 48 -26 69 -25 146 1
109 21 161 91 236 52 55 121 96 187 109 60 12 85 11 147 -4z m1314 -1 c260
-68 354 -382 174 -580 -30 -32 -73 -65 -107 -82 -50 -25 -68 -28 -152 -28 -84
0 -102 3 -152 28 -74 36 -150 119 -178 195 -31 80 -25 205 13 278 51 99 125
160 227 188 72 19 103 19 175 1z"/>
<path d="M491 4432 c-48 -24 -73 -62 -78 -119 -5 -57 19 -102 69 -133 93 -56
218 15 218 125 0 107 -113 176 -209 127z"/>
<path d="M929 4429 c-134 -78 -67 -284 87 -266 56 6 98 37 119 89 51 128 -87
246 -206 177z"/>
<path d="M1381 4432 c-100 -50 -106 -186 -12 -249 92 -62 221 10 221 122 0
107 -113 176 -209 127z"/>
<path d="M1225 3023 c-65 -17 -69 -46 -29 -229 26 -124 38 -163 55 -176 19
-16 50 -18 311 -18 l289 0 24 25 c29 28 29 24 11 213 -19 204 13 187 -349 189
-160 1 -301 -1 -312 -4z m509 -174 c3 -17 6 -47 6 -65 l0 -34 -190 0 -189 0
-10 38 c-10 37 -14 70 -12 85 0 4 88 7 195 7 l194 0 6 -31z"/>
<path d="M2123 3015 c-20 -8 -35 -23 -39 -40 -8 -32 15 -314 27 -337 19 -35
44 -38 373 -38 313 0 327 1 346 20 11 11 20 23 20 28 1 4 7 75 14 157 14 153
11 180 -19 205 -26 22 -675 27 -722 5z m593 -181 c-3 -26 -6 -55 -6 -65 0 -18
-13 -19 -235 -19 l-235 0 0 65 0 65 241 0 242 0 -7 -46z"/>
<path d="M3124 3016 c-39 -17 -42 -25 -54 -159 -15 -172 -13 -214 10 -237 19
-19 33 -20 323 -20 302 0 304 0 324 23 15 16 30 67 54 179 36 176 34 197 -24
218 -47 16 -594 13 -633 -4z m516 -144 c0 -5 -5 -34 -11 -65 l-12 -57 -204 0
-204 0 6 53 c4 28 8 58 10 65 3 9 54 12 210 12 113 0 205 -4 205 -8z"/>
<path d="M1325 2375 c-14 -13 -25 -34 -25 -47 0 -13 14 -88 31 -168 43 -204
19 -190 325 -190 l245 0 24 25 c14 13 25 35 25 49 0 65 -22 284 -31 307 -18
45 -42 49 -315 49 l-255 0 -24 -25z m459 -141 c3 -9 6 -38 6 -65 l0 -49 -149
0 -148 0 -12 57 c-6 31 -11 60 -11 65 0 4 69 8 154 8 131 0 155 -2 160 -16z"/>
<path d="M2155 2375 c-28 -27 -29 -32 -15 -198 13 -151 16 -163 40 -187 19
-19 35 -20 294 -20 342 0 320 -10 336 160 17 190 15 225 -16 249 -26 20 -38
21 -321 21 l-294 0 -24 -25z m511 -156 c-3 -17 -6 -47 -6 -65 l0 -34 -179 0
c-201 0 -191 -4 -191 81 l0 49 191 0 192 0 -7 -31z"/>
<path d="M3055 2378 c-24 -22 -26 -32 -40 -182 -14 -172 -11 -195 32 -215 33
-15 493 -15 527 0 31 15 39 35 72 193 33 161 33 174 0 203 -27 23 -30 23 -296
23 -264 0 -269 0 -295 -22z m444 -170 c-21 -99 1 -88 -181 -88 l-161 0 7 46
c3 26 6 55 6 65 0 18 11 19 169 19 l169 0 -9 -42z"/>
<path d="M1467 1759 c-38 -22 -38 -52 -3 -215 25 -115 40 -162 55 -178 21 -20
31 -21 232 -21 l211 0 20 25 c19 23 20 34 14 120 -15 211 -18 233 -42 257 -23
23 -27 23 -246 23 -137 0 -230 -5 -241 -11z m373 -204 l0 -65 -105 0 -105 0
-6 28 c-8 35 -14 63 -20 85 -5 15 5 17 115 17 l121 0 0 -65z"/>
<path d="M2205 1745 c-29 -28 -28 -16 -11 -208 18 -205 -1 -191 268 -195 219
-3 259 2 278 38 5 10 15 90 22 179 l12 160 -24 26 -23 25 -249 0 -249 0 -24
-25z m408 -177 c-7 -83 1 -78 -136 -78 l-124 0 -7 31 c-3 17 -6 47 -6 65 l0
34 139 0 138 0 -4 -52z"/>
<path d="M3001 1751 c-23 -23 -27 -42 -41 -215 -11 -143 -5 -167 46 -186 14
-6 111 -10 215 -10 219 0 242 6 258 68 19 70 61 274 61 293 0 11 -11 31 -25
44 l-24 25 -236 0 c-219 0 -236 -1 -254 -19z m369 -143 c0 -7 -6 -35 -13 -63
l-13 -50 -117 -3 -117 -3 0 28 c0 15 3 45 6 66 l7 37 123 0 c93 0 124 -3 124
-12z"/>
<path d="M1764 865 c-66 -34 -87 -136 -38 -194 79 -94 224 -37 224 89 0 87
-105 146 -186 105z"/>
<path d="M3062 860 c-34 -21 -62 -72 -62 -113 0 -36 40 -90 84 -111 32 -16 44
-17 75 -8 48 15 90 60 97 103 13 75 -50 149 -126 149 -19 0 -50 -9 -68 -20z"/>
</g>
</svg>
