<?xml version="1.0" standalone="no"?>
<!DOCTYPE svg PUBLIC "-//W3C//DTD SVG 20010904//EN"
 "http://www.w3.org/TR/2001/REC-SVG-20010904/DTD/svg10.dtd">
<svg version="1.0" xmlns="http://www.w3.org/2000/svg"
 width="512.000000pt" height="512.000000pt" viewBox="0 0 512.000000 512.000000"
 preserveAspectRatio="xMidYMid meet">

<g transform="translate(0.000000,512.000000) scale(0.100000,-0.100000)"
fill="#fff" stroke="none">
<path d="M2482 4578 c-134 -134 -250 -257 -257 -273 -7 -17 -11 -42 -8 -56 3
-17 91 -112 257 -278 285 -285 293 -290 357 -233 28 25 34 37 34 71 0 39 -7
47 -110 154 -61 61 -130 134 -155 161 l-45 48 95 -7 c403 -29 773 -202 1052
-493 55 -57 128 -149 171 -214 73 -109 125 -205 116 -210 -2 -2 -30 -16 -61
-32 -72 -36 -174 -129 -224 -203 -21 -31 -51 -95 -67 -142 -35 -103 -41 -236
-13 -340 50 -191 200 -356 384 -421 34 -13 62 -29 62 -36 0 -7 -13 -47 -30
-89 -205 -517 -624 -872 -1175 -996 -99 -23 -109 -23 -977 -26 l-878 -4 0 134
c0 161 -5 189 -38 222 l-25 25 -424 0 -425 0 -29 -29 -29 -29 0 -425 0 -424
25 -25 c14 -14 39 -28 56 -32 18 -3 202 -6 411 -6 310 0 385 3 414 15 54 22
64 58 64 230 l0 145 810 0 c501 0 848 4 908 11 569 61 1067 380 1360 870 64
106 104 193 152 328 l37 105 71 16 c117 28 197 73 288 164 62 62 90 99 118
158 65 135 59 212 -19 238 -30 10 -41 9 -72 -7 -33 -16 -41 -28 -64 -89 -46
-127 -109 -197 -226 -252 -52 -24 -69 -27 -168 -27 -101 0 -115 2 -170 29 -79
39 -168 129 -201 201 -48 109 -47 247 1 349 87 185 296 277 493 217 66 -20
172 -85 172 -106 0 -6 -48 -58 -106 -115 l-106 -105 -21 30 c-48 65 -74 85
-112 85 -52 0 -95 -44 -95 -97 0 -31 14 -58 73 -143 39 -57 84 -111 98 -119
59 -33 72 -24 412 317 l317 318 0 43 c0 57 -41 101 -96 101 -33 0 -46 -9 -125
-86 -100 -98 -79 -96 -179 -19 -67 52 -178 94 -280 108 l-89 12 -46 90 c-249
487 -704 833 -1245 945 -58 12 -152 24 -210 26 -58 3 -111 8 -119 10 -9 3 39
58 136 157 93 93 154 163 158 180 9 33 -10 82 -39 102 -11 8 -38 15 -60 15
-39 0 -47 -7 -284 -242z m-1672 -3718 l0 -290 -290 0 -290 0 0 283 c0 156 3
287 7 290 3 4 134 7 290 7 l283 0 0 -290z"/>
<path d="M1736 4176 c-290 -148 -524 -356 -699 -621 -186 -283 -281 -581 -294
-922 -17 -448 121 -862 403 -1209 104 -128 145 -164 190 -164 52 0 94 44 94
99 0 36 -7 49 -62 108 -215 237 -356 525 -410 836 -17 104 -19 149 -15 307 4
131 11 212 25 278 107 491 431 907 872 1119 111 54 129 72 130 130 0 34 -5 46
-31 67 -46 39 -81 34 -203 -28z"/>
<path d="M4508 1395 c-35 -20 -48 -44 -48 -91 0 -35 10 -48 152 -190 l152
-153 -476 -3 -476 -3 -26 -24 c-50 -48 -39 -133 21 -160 16 -7 179 -11 501
-11 l476 0 -162 -163 c-152 -153 -162 -166 -162 -201 0 -55 43 -96 101 -96 43
0 44 1 296 253 l253 253 0 44 0 44 -253 253 c-216 217 -257 254 -287 258 -21
3 -46 -1 -62 -10z"/>
</g>
</svg>
